<svg width="31" height="28" viewBox="0 0 31 28" fill="none" xmlns="http://www.w3.org/2000/svg">
<path d="M27.2999 0.552856H3.83739C1.97714 0.552856 0.485596 2.07164 0.485596 3.92793V24.1784C0.485596 26.0347 1.97714 27.5534 3.83739 27.5534H27.2999C29.1434 27.5534 30.6517 26.0347 30.6517 24.1784V3.92793C30.6517 2.07164 29.1434 0.552856 27.2999 0.552856ZM13.8928 12.3656H11.3789V11.5218H8.02713V16.5845H11.3789V15.7407H13.8928V17.4282C13.8928 18.3564 13.1386 19.1158 12.2169 19.1158H7.18918C6.26744 19.1158 5.51328 18.3564 5.51328 17.4282V10.6781C5.51328 9.74993 6.26744 8.99054 7.18918 8.99054H12.2169C13.1386 8.99054 13.8928 9.74993 13.8928 10.6781V12.3656ZM25.624 12.3656H23.1102V11.5218H19.7584V16.5845H23.1102V15.7407H25.624V17.4282C25.624 18.3564 24.8699 19.1158 23.9481 19.1158H18.9204C17.9987 19.1158 17.2446 18.3564 17.2446 17.4282V10.6781C17.2446 9.74993 17.9987 8.99054 18.9204 8.99054H23.9481C24.8699 8.99054 25.624 9.74993 25.624 10.6781V12.3656Z" fill="white"/>
</svg>
