<svg width="40" height="40" viewBox="0 0 40 40" fill="none" xmlns="http://www.w3.org/2000/svg">
<path d="M20 38C22.3638 38 24.7044 37.5344 26.8883 36.6298C29.0722 35.7252 31.0565 34.3994 32.7279 32.7279C34.3994 31.0565 35.7252 29.0722 36.6298 26.8883C37.5344 24.7044 38 22.3638 38 20C38 17.6362 37.5344 15.2956 36.6298 13.1117C35.7252 10.9278 34.3994 8.94353 32.7279 7.27208C31.0565 5.60062 29.0722 4.27475 26.8883 3.37017C24.7044 2.46558 22.3638 2 20 2M20 38C17.6362 38 15.2956 37.5344 13.1117 36.6298C10.9278 35.7252 8.94353 34.3994 7.27208 32.7279C5.60062 31.0565 4.27475 29.0722 3.37017 26.8883C2.46558 24.7044 2 22.3638 2 20C2 17.6362 2.46558 15.2956 3.37017 13.1117C4.27475 10.9278 5.60062 8.94353 7.27208 7.27208C8.94353 5.60062 10.9278 4.27475 13.1117 3.37017C15.2956 2.46558 17.6362 2 20 2M20 38C25.522 38 27.882 27.674 27.882 20C27.882 12.326 25.522 2 20 2M20 38C14.478 38 12.118 27.674 12.118 20C12.118 12.326 14.478 2 20 2M3 14H37M3 26H37" stroke="white" stroke-width="3" stroke-linecap="round" stroke-linejoin="round"/>
</svg>
