<svg width="158" height="113" viewBox="0 0 158 113" fill="none" xmlns="http://www.w3.org/2000/svg">
<path d="M100.691 70.5551C81.592 70.5551 43.4651 79.9286 43.4651 98.7459V112.841H157.917V98.7459C157.917 79.9286 119.791 70.5551 100.691 70.5551ZM36.3118 42.3643V21.2211H22.0052V42.3643H0.54541V56.4597H22.0052V77.6028H36.3118V56.4597H57.7716V42.3643M100.691 56.4597C108.28 56.4597 115.558 53.4896 120.924 48.2028C126.29 42.916 129.304 35.7455 129.304 28.2688C129.304 20.7922 126.29 13.6217 120.924 8.33491C115.558 3.0481 108.28 0.0780029 100.691 0.0780029C93.1026 0.0780029 85.8248 3.0481 80.4588 8.33491C75.0928 13.6217 72.0782 20.7922 72.0782 28.2688C72.0782 35.7455 75.0928 42.916 80.4588 48.2028C85.8248 53.4896 93.1026 56.4597 100.691 56.4597Z" fill="white"/>
</svg>
