<svg width="36" height="36" viewBox="0 0 36 36" fill="none" xmlns="http://www.w3.org/2000/svg">
<g clip-path="url(#clip0_12_742)">
<path d="M20.8887 22.2242H19.7949C20.0137 22.8805 20.0137 23.7555 20.0137 24.4117C20.0137 29.2242 16.0762 33.1617 11.2637 33.1617C6.45117 33.1617 2.51367 29.2242 2.51367 24.4117C2.51367 19.818 6.01367 16.0992 10.6074 15.6617L10.1699 13.4742C4.48242 14.3492 0.326172 18.7242 0.326172 24.4117C0.326172 30.5367 5.13867 35.3492 11.2637 35.3492C16.5137 35.3492 20.8887 31.6305 21.9824 26.818L20.8887 22.2242Z" fill="white"/>
<path d="M26.7949 28.7867L24.3887 17.8492H15.4199L14.9824 15.6617H22.2012V13.4742H14.5449L13.2324 8.00549C15.2012 7.78674 16.7324 6.25549 16.7324 4.28674C16.7324 2.09924 14.9824 0.349243 12.7949 0.349243C10.6074 0.349243 9.07617 2.09924 9.07617 4.28674C9.07617 5.59924 9.73242 6.91174 10.8262 7.56799L13.6699 20.0367H22.6387L25.2637 30.9742H30.9512V28.7867H26.7949Z" fill="white"/>
</g>
<defs>
<clipPath id="clip0_12_742">
<rect width="35" height="35" fill="white" transform="translate(0.326172 0.349243)"/>
</clipPath>
</defs>
</svg>
