<svg width="40" height="40" viewBox="0 0 40 40" fill="none" xmlns="http://www.w3.org/2000/svg">
<path d="M4.74 11.314C8.866 12.37 9.532 16.926 11.144 19.054C13.284 21.88 15.294 21.51 17.528 24.342C21.138 28.92 20.152 35.752 20.152 37.752M36 26H34C31.8783 26 29.8434 26.8429 28.3431 28.3431C26.8429 29.8434 26 31.8783 26 34V36M13.174 3.984C13.174 5.628 13.398 7.756 16.204 9.144C19.008 10.53 22.04 9.846 22.04 13.812C22.04 14.364 22.04 17.828 25.984 17.828C30.036 17.89 30.036 14.472 30.036 13.812C30.036 12.512 31.09 12.012 32.39 12.012H36M38 20C38 22.3638 37.5344 24.7044 36.6298 26.8883C35.7252 29.0722 34.3994 31.0565 32.7279 32.7279C31.0565 34.3994 29.0722 35.7252 26.8883 36.6298C24.7044 37.5344 22.3638 38 20 38C17.6362 38 15.2956 37.5344 13.1117 36.6298C10.9278 35.7252 8.94353 34.3994 7.27208 32.7279C5.60062 31.0565 4.27475 29.0722 3.37017 26.8883C2.46558 24.7044 2 22.3638 2 20C2 15.2261 3.89642 10.6477 7.27208 7.27208C10.6477 3.89642 15.2261 2 20 2C24.7739 2 29.3523 3.89642 32.7279 7.27208C36.1036 10.6477 38 15.2261 38 20Z" stroke="white" stroke-width="4" stroke-linecap="round"/>
</svg>
