<svg width="32" height="33" viewBox="0 0 32 33" fill="none" xmlns="http://www.w3.org/2000/svg">
<path d="M30.6826 14.1399C25.859 9.60957 17.0998 1.16959 17.013 1.08387L16.081 0.190186L15.1532 1.08387C15.065 1.168 6.30146 9.60481 1.40815 14.1764C1.10372 14.4769 0.859274 14.8454 0.690636 15.2581C0.521998 15.6707 0.432929 16.1183 0.429199 16.5717C0.429199 17.4137 0.729021 18.2212 1.26271 18.8166C1.79639 19.412 2.52023 19.7464 3.27497 19.7464H4.69786V29.2706C4.69786 30.1126 4.99768 30.9201 5.53137 31.5155C6.06506 32.1108 6.78889 32.4453 7.54364 32.4453H24.6183C25.373 32.4453 26.0969 32.1108 26.6306 31.5155C27.1642 30.9201 27.4641 30.1126 27.4641 29.2706V19.7464H28.887C29.6417 19.7464 30.3655 19.412 30.8992 18.8166C31.4329 18.2212 31.7327 17.4137 31.7327 16.5717C31.7327 15.6225 31.3414 14.7288 30.6826 14.1399ZM18.9267 29.2706H13.2352V21.3338H18.9267V29.2706ZM24.6183 16.5717L24.6211 29.2706H20.3496V19.7464H11.8123V29.2706H7.54364V16.5717H3.27355C7.20784 12.9018 13.682 6.68724 16.081 4.38081C18.48 6.68724 24.9512 12.9002 28.887 16.5733L24.6183 16.5717Z" fill="white"/>
</svg>
