<svg width="49" height="60" viewBox="0 0 49 60" fill="none" xmlns="http://www.w3.org/2000/svg">
<path d="M21.3435 54.0114V50.8485C15.5735 50.1216 10.2674 47.3133 6.42153 42.9509C2.57565 38.5886 0.454548 32.9723 0.456544 27.1568H6.42425C6.42425 31.905 8.31046 36.4587 11.6679 39.8162C15.0254 43.1737 19.5791 45.0599 24.3273 45.0599C29.0755 45.0599 33.6293 43.1737 36.9868 39.8162C40.3442 36.4587 42.2304 31.905 42.2304 27.1568H48.1982C48.2001 32.9723 46.079 38.5886 42.2332 42.9509C38.3873 47.3133 33.0812 50.1216 27.3112 50.8485V54.0114H36.2627V59.9791H12.3919V54.0114H21.3435ZM12.3919 12.2375C12.3919 9.07206 13.6494 6.03624 15.8877 3.79792C18.1261 1.5596 21.1619 0.302124 24.3273 0.302124C27.4928 0.302124 30.5286 1.5596 32.767 3.79792C35.0053 6.03624 36.2627 9.07206 36.2627 12.2375V27.1568C36.2627 30.3222 35.0053 33.3581 32.767 35.5964C30.5286 37.8347 27.4928 39.0922 24.3273 39.0922C21.1619 39.0922 18.1261 37.8347 15.8877 35.5964C13.6494 33.3581 12.3919 30.3222 12.3919 27.1568V12.2375Z" fill="white"/>
</svg>
