<svg width="32" height="27" viewBox="0 0 32 27" fill="none" xmlns="http://www.w3.org/2000/svg">
<path d="M27.7947 0.488892H4.49759C2.36203 0.488892 0.614746 1.94773 0.614746 3.73076V23.1819C0.614746 24.965 2.36203 26.4238 4.49759 26.4238H27.7947C29.9302 26.4238 31.6775 24.965 31.6775 23.1819V3.73076C31.6775 1.94773 29.9302 0.488892 27.7947 0.488892ZM27.7947 23.1819H4.49759V3.73076H27.7947V23.1819Z" fill="white"/>
<path d="M13.6195 6.51854C13.838 6.50708 14.0365 6.56682 14.1713 6.68464C14.3061 6.80245 14.3661 6.96868 14.3382 7.14678L13.6676 11.4211C13.6397 11.5992 13.526 11.7746 13.3518 11.9086C13.1775 12.0427 12.9568 12.1245 12.7382 12.136L7.49307 12.4116C7.27747 12.4199 7.08282 12.3586 6.95105 12.241C6.81928 12.1233 6.76092 11.9587 6.78855 11.7826C6.81617 11.6065 6.92758 11.433 7.09876 11.2994C7.26994 11.1659 7.48721 11.0829 7.70377 11.0685L10.9155 10.8592L6.08681 6.63837C5.952 6.52054 5.89196 6.35426 5.91991 6.17613C5.94785 5.998 6.06149 5.8226 6.23582 5.68852C6.41014 5.55444 6.63088 5.47266 6.84947 5.46117C7.06806 5.44968 7.2666 5.50943 7.40141 5.62727L12.2302 9.84812L12.6901 7.23339C12.718 7.05529 12.8317 6.87993 13.0059 6.74588C13.1802 6.61182 13.4009 6.53005 13.6195 6.51854Z" fill="white"/>
<path d="M19.5692 20.8473C19.3565 20.8673 19.1629 20.8173 19.0309 20.7083C18.899 20.5993 18.8395 20.4402 18.8655 20.2659L19.4909 16.0842C19.517 15.9099 19.6265 15.7349 19.7954 15.5975C19.9642 15.4601 20.1785 15.3716 20.3912 15.3515L25.4958 14.8701C25.7056 14.8533 25.8955 14.9049 26.0246 15.0139C26.1536 15.1229 26.2115 15.2805 26.1857 15.4528C26.1599 15.6251 26.0526 15.7983 25.8868 15.9351C25.721 16.0719 25.51 16.1613 25.2993 16.1841L22.1738 16.5183L26.9018 20.4242C27.0338 20.5332 27.0933 20.6924 27.0672 20.8667C27.0412 21.0409 26.9316 21.216 26.7628 21.3535C26.5939 21.4909 26.3796 21.5794 26.1668 21.5994C25.9541 21.6195 25.7604 21.5695 25.6284 21.4604L20.9005 17.5545L20.4695 20.1146C20.4434 20.2889 20.3339 20.464 20.1651 20.6013C19.9962 20.7387 19.7819 20.8272 19.5692 20.8473Z" fill="white"/>
</svg>
